<svg width="200" height="200" viewBox="0 0 200 200" fill="none" xmlns="http://www.w3.org/2000/svg">
<path d="M73.5299 125.552C71.3608 125.551 69.24 126.135 67.4358 127.232C65.6316 128.328 64.2251 129.887 63.3943 131.711C62.5634 133.535 62.3454 135.542 62.768 137.479C63.1905 139.416 64.2346 141.195 65.7681 142.592C67.3016 143.989 69.2557 144.94 71.3832 145.325C73.5106 145.711 75.7158 145.513 77.7199 144.757C79.7239 144.002 81.4367 142.722 82.6416 141.08C83.8466 139.438 84.4895 137.507 84.4891 135.533C84.4885 132.886 83.3338 130.349 81.2788 128.477C79.2239 126.606 76.4367 125.553 73.5299 125.552ZM73.5299 137.67C73.066 137.67 72.6126 137.545 72.2268 137.311C71.841 137.076 71.5403 136.742 71.3627 136.352C71.1851 135.962 71.1384 135.533 71.2288 135.119C71.3191 134.704 71.5424 134.324 71.8703 134.025C72.1981 133.726 72.616 133.523 73.071 133.44C73.5259 133.357 73.9976 133.399 74.4263 133.561C74.855 133.722 75.2216 133.996 75.4796 134.347C75.7377 134.698 75.8756 135.11 75.876 135.533C75.8732 136.098 75.6252 136.64 75.1859 137.041C74.7466 137.441 74.1515 137.667 73.5299 137.67ZM126.436 72.3871C124.268 72.3871 122.148 72.9724 120.344 74.0691C118.541 75.1659 117.136 76.7247 116.306 78.5486C115.476 80.3724 115.258 82.3794 115.681 84.3158C116.104 86.2521 117.148 88.0308 118.681 89.427C120.214 90.8233 122.167 91.7743 124.294 92.16C126.421 92.5456 128.626 92.3485 130.63 91.5935C132.633 90.8386 134.346 89.5597 135.552 87.9186C136.757 86.2775 137.401 84.3478 137.402 82.3736C137.402 81.0623 137.119 79.7638 136.568 78.5522C136.017 77.3406 135.21 76.2396 134.192 75.3123C133.173 74.3849 131.964 73.6492 130.634 73.1473C129.303 72.6454 127.877 72.3871 126.436 72.3871ZM126.436 84.5074C125.971 84.5078 125.517 84.3827 125.131 84.1478C124.744 83.913 124.443 83.579 124.265 83.1882C124.087 82.7974 124.04 82.3673 124.131 81.9523C124.222 81.5374 124.446 81.1563 124.774 80.8573C125.103 80.5583 125.522 80.3549 125.978 80.2727C126.434 80.1905 126.906 80.2333 127.335 80.3956C127.764 80.5579 128.131 80.8326 128.388 81.1847C128.646 81.5368 128.783 81.9505 128.782 82.3736C128.776 82.9374 128.526 83.4763 128.088 83.8741C127.649 84.2718 127.055 84.4965 126.436 84.4995V84.5074ZM73.5299 92.3523C75.6989 92.3523 77.8192 91.7667 79.6225 90.6697C81.4259 89.5726 82.8314 88.0132 83.6613 86.1889C84.4911 84.3646 84.708 82.3573 84.2845 80.4207C83.8611 78.4842 82.8163 76.7054 81.2823 75.3095C79.7483 73.9136 77.794 72.9631 75.6666 72.5783C73.5392 72.1936 71.3343 72.3918 69.3307 73.148C67.327 73.9042 65.6147 75.1842 64.4104 76.8264C63.206 78.4685 62.5635 80.399 62.5644 82.3736C62.5678 85.0191 63.7246 87.5552 65.7807 89.4247C67.8368 91.2943 70.6239 92.3444 73.5299 92.3444V92.3523ZM73.5299 80.2339C74.1525 80.2349 74.7493 80.4608 75.1891 80.862C75.629 81.2631 75.876 81.8068 75.876 82.3736C75.8752 82.796 75.7368 83.2087 75.4783 83.5595C75.2198 83.9103 74.8528 84.1834 74.4238 84.3444C73.9948 84.5053 73.523 84.5468 73.0681 84.4636C72.6131 84.3804 72.1955 84.1763 71.868 83.8771C71.5405 83.5778 71.3178 83.1969 71.2281 82.7825C71.1384 82.368 71.1858 81.9387 71.3642 81.5487C71.5425 81.1587 71.8439 80.8257 72.2301 80.5917C72.6164 80.3576 73.0703 80.2331 73.5343 80.2339H73.5299ZM126.436 125.552C124.267 125.552 122.147 126.137 120.344 127.234C118.54 128.331 117.135 129.891 116.305 131.715C115.475 133.539 115.258 135.546 115.681 137.483C116.105 139.419 117.149 141.198 118.683 142.594C120.217 143.99 122.171 144.941 124.298 145.326C126.425 145.711 128.63 145.513 130.634 144.757C132.638 144.001 134.35 142.721 135.555 141.079C136.759 139.437 137.402 137.507 137.402 135.533C137.4 132.886 136.244 130.348 134.188 128.476C132.132 126.605 129.344 125.553 126.436 125.552ZM126.436 137.67C125.972 137.67 125.519 137.545 125.133 137.311C124.747 137.076 124.446 136.742 124.269 136.352C124.091 135.962 124.045 135.533 124.135 135.119C124.225 134.704 124.449 134.324 124.776 134.025C125.104 133.726 125.522 133.523 125.977 133.44C126.432 133.357 126.904 133.399 127.332 133.561C127.761 133.722 128.128 133.996 128.386 134.347C128.644 134.698 128.782 135.11 128.782 135.533C128.78 136.099 128.532 136.641 128.093 137.041C127.653 137.442 127.058 137.668 126.436 137.67ZM126.363 108.95C126.363 104.2 124.817 99.5569 121.918 95.6073C119.02 91.6577 114.9 88.5793 110.079 86.7614C105.259 84.9435 99.9545 84.4677 94.8371 85.3943C89.7197 86.3209 85.0191 88.6082 81.3297 91.9669C77.6403 95.3256 75.1278 99.6049 74.11 104.264C73.0922 108.922 73.6148 113.751 75.6117 118.139C77.6086 122.528 80.9901 126.278 85.3286 128.917C89.667 131.556 94.7676 132.964 99.9852 132.963C106.981 132.963 113.69 130.433 118.636 125.929C123.583 121.426 126.362 115.319 126.363 108.95ZM99.9852 125.121C96.4726 125.121 93.0387 124.173 90.1178 122.397C87.1968 120.62 84.9201 118.096 83.5755 115.141C82.2308 112.187 81.8787 108.936 82.5636 105.8C83.2484 102.663 84.9395 99.7822 87.4231 97.5208C89.9066 95.2593 93.071 93.7191 96.5161 93.0948C99.9612 92.4706 103.532 92.7904 106.778 94.0138C110.023 95.2372 112.797 97.3092 114.749 99.9679C116.701 102.627 117.743 105.752 117.743 108.95C117.737 113.236 115.864 117.345 112.535 120.376C109.206 123.407 104.693 125.113 99.9852 125.121ZM163.881 38.9089L158.478 15.4643C158.349 14.9033 158.086 14.3749 157.709 13.9161C157.332 13.4573 156.848 13.0793 156.293 12.8088C139.527 4.67231 120.873 0.286387 101.876 0.0135586C82.8784 -0.25927 64.0824 3.58885 47.0424 11.2399C46.4566 11.5025 45.9442 11.8833 45.5444 12.3533C45.1446 12.8234 44.8678 13.3702 44.7351 13.9522L39.5647 36.4122C23.03 47.8304 10.8073 63.649 4.59109 81.6749C-1.62507 99.7007 -1.52667 119.041 4.87268 137.013C11.272 154.986 23.6552 170.701 40.3054 181.979C56.9556 193.257 77.0478 199.54 97.7963 199.956C118.545 200.373 138.922 194.902 156.102 184.303C173.281 173.703 186.413 158.5 193.676 140.802C200.939 123.103 201.974 103.786 196.636 85.5285C191.298 67.2708 179.853 50.9772 163.887 38.9069L163.881 38.9089ZM52.732 17.455C68.0635 10.8952 84.8396 7.61324 101.778 7.86002C118.716 8.1068 135.368 11.8758 150.461 18.8789L153.49 32.0308C147.714 28.6857 141.574 25.8919 135.168 23.6937C134.638 23.5124 134.074 23.4278 133.508 23.4449C132.943 23.4619 132.386 23.5801 131.871 23.793C131.356 24.0058 130.891 24.3089 130.505 24.6851C130.118 25.0613 129.816 25.5031 129.617 25.9853C129.418 26.4676 129.325 26.9809 129.344 27.4959C129.362 28.0108 129.492 28.5173 129.726 28.9865C129.96 29.4558 130.293 29.8784 130.706 30.2305C131.119 30.5826 131.605 30.8572 132.134 31.0385C139.555 33.5798 146.58 36.991 153.031 41.1859L144.875 47.7108C132.237 40.0314 117.477 35.7505 102.288 35.3592C87.0988 34.9679 72.0963 38.4821 59.0011 45.4986L50.7306 38.8755C56.8983 35.2694 63.5211 32.3536 70.4558 30.1912C71.0039 30.0342 71.512 29.7788 71.9501 29.4403C72.3883 29.1018 72.7476 28.687 73.007 28.2202C73.2664 27.7534 73.4206 27.2441 73.4605 26.7222C73.5004 26.2003 73.4253 25.6764 73.2395 25.1814C73.0537 24.6864 72.761 24.2301 72.3786 23.8396C71.9962 23.4491 71.5318 23.1322 71.0129 22.9075C70.4939 22.6828 69.9309 22.5549 69.3568 22.5313C68.7828 22.5077 68.2093 22.5888 67.6702 22.77C61.463 24.7012 55.4807 27.1863 49.8107 30.1892L52.732 17.455ZM164.609 167.783C157.295 174.444 148.795 179.929 139.47 184.006L153.133 153.484C153.375 153.003 153.509 152.482 153.525 151.953C153.54 151.424 153.438 150.897 153.225 150.405C153.011 149.912 152.69 149.464 152.281 149.088C151.872 148.712 151.384 148.414 150.846 148.214C150.307 148.014 149.73 147.916 149.148 147.924C148.567 147.933 147.994 148.048 147.462 148.264C146.931 148.479 146.454 148.791 146.058 149.179C145.663 149.567 145.358 150.024 145.162 150.522L128.375 188.027V188.046C112.33 192.812 95.1483 193.441 78.7341 189.865C62.3198 186.288 47.3133 178.646 35.3766 167.783C33.2309 165.83 31.1958 163.782 29.2713 161.639L59.6237 166.055C59.8517 166.088 60.0823 166.104 60.3131 166.104C61.394 166.1 62.4335 165.725 63.2254 165.056C64.0174 164.386 64.5039 163.47 64.5885 162.489C64.6731 161.508 64.3496 160.534 63.6822 159.76C63.0147 158.986 62.0521 158.468 60.9852 158.31L23.112 152.793C22.8426 152.756 22.57 152.743 22.2977 152.752C15.0717 142.128 10.5661 130.158 9.11495 117.732C7.66383 105.306 9.30442 92.7415 13.9151 80.9713L27.272 110.535C27.4872 111.011 27.8033 111.445 28.2024 111.81C28.6015 112.175 29.0757 112.465 29.5979 112.664C30.1201 112.862 30.6801 112.965 31.246 112.966C31.8119 112.968 32.3726 112.867 32.896 112.672C33.4193 112.476 33.8952 112.188 34.2964 111.825C34.6976 111.461 35.0163 111.03 35.2342 110.554C35.4522 110.079 35.5652 109.569 35.5667 109.054C35.5682 108.539 35.4583 108.028 35.2431 107.552L18.6957 70.9122C24.7251 60.2796 33.1913 50.9491 43.5222 43.5511L55.7093 53.3082C56.4144 53.872 57.3024 54.2108 58.2384 54.2731C59.1744 54.3354 60.1071 54.1178 60.8948 53.6534C73.1677 46.4547 87.5493 42.8119 102.143 43.2054C116.736 43.599 130.856 48.0103 142.639 55.8578C143.431 56.3826 144.395 56.6468 145.374 56.6069C146.353 56.567 147.287 56.2253 148.025 55.6381L159.904 46.1302C175.84 58.7096 186.497 75.9257 190.064 94.8509L164.755 75.9427C164.32 75.6012 163.814 75.3423 163.268 75.1814C162.721 75.0205 162.144 74.9607 161.572 75.0057C160.999 75.0506 160.443 75.1993 159.934 75.4431C159.426 75.6869 158.976 76.0208 158.612 76.4251C158.247 76.8295 157.975 77.2961 157.812 77.7975C157.648 78.299 157.596 78.8252 157.66 79.3451C157.723 79.865 157.9 80.3681 158.179 80.8249C158.459 81.2816 158.837 81.6829 159.29 82.0049L191.32 105.932C191.359 106.932 191.383 107.936 191.383 108.946C191.399 119.876 189.042 130.7 184.447 140.798C179.852 150.895 173.11 160.066 164.609 167.783ZM99.9895 52.7512C87.7796 52.7497 75.8434 56.0443 65.6904 62.2186C55.5374 68.3929 47.6237 77.1695 42.95 87.4384C38.2762 97.7072 37.0525 109.007 39.4335 119.909C41.8145 130.811 47.6933 140.826 56.3264 148.686C64.9595 156.546 75.9591 161.9 87.9343 164.069C99.9095 166.238 112.322 165.125 123.603 160.872C134.884 156.619 144.525 149.415 151.309 140.173C158.093 130.931 161.713 120.066 161.713 108.95C161.711 94.0473 155.208 79.7553 143.633 69.2166C132.058 58.6779 116.36 52.7554 99.9895 52.7512ZM99.9895 157.3C89.4844 157.301 79.2148 154.467 70.4796 149.154C61.7443 143.842 54.9356 136.291 50.9147 127.455C46.8937 118.62 45.8412 108.898 47.89 99.518C49.9388 90.1382 54.997 81.5221 62.425 74.7595C69.8529 67.9968 79.317 63.3913 89.6202 61.5254C99.9234 59.6594 110.603 60.6169 120.309 64.2766C130.014 67.9364 138.309 74.1342 144.146 82.0861C149.982 90.0379 153.096 99.3867 153.096 108.95C153.076 121.767 147.475 134.054 137.52 143.117C127.565 152.181 114.069 157.281 99.9895 157.3Z" fill="#A3F7BF"/>
</svg>
