<svg width="173" height="216" viewBox="0 0 173 216" fill="none" xmlns="http://www.w3.org/2000/svg">
<path d="M104.205 130.41H103.584C102.979 130.268 102.442 129.921 102.063 129.43C101.684 128.938 101.486 128.331 101.502 127.71V90.0992L85.8512 86.4002C85.2514 86.2524 84.7204 85.9038 84.3467 85.4126C83.9729 84.9213 83.7788 84.317 83.7968 83.7002V56.2952C83.7968 55.5791 84.0816 54.8924 84.5885 54.386C85.0955 53.8797 85.783 53.5952 86.4999 53.5952H116.396C117.113 53.5952 117.801 53.8797 118.308 54.386C118.815 54.8924 119.1 55.5791 119.1 56.2952V103.896C119.105 104.317 119.013 104.733 118.829 105.111L106.638 128.925C106.412 129.375 106.064 129.752 105.634 130.014C105.204 130.277 104.709 130.414 104.205 130.41ZM89.2031 81.5942L104.854 85.3472C105.454 85.495 105.985 85.8436 106.359 86.3349C106.732 86.8261 106.927 87.4304 106.909 88.0472V116.478L113.666 103.248V59.0222H89.2031V81.5942Z" fill="#A3F7BF"/>
<path d="M104.206 166.266C103.489 166.266 102.801 165.981 102.294 165.475C101.787 164.969 101.502 164.282 101.502 163.566V127.71C101.502 126.994 101.787 126.307 102.294 125.801C102.801 125.294 103.489 125.01 104.206 125.01C104.922 125.01 105.61 125.294 106.117 125.801C106.624 126.307 106.909 126.994 106.909 127.71V163.566C106.909 164.282 106.624 164.969 106.117 165.475C105.61 165.981 104.922 166.266 104.206 166.266Z" fill="#A3F7BF"/>
<path d="M116.396 59.0221C115.89 59.0231 115.393 58.8819 114.963 58.6145C114.533 58.3472 114.187 57.9645 113.964 57.5101L103.638 36.2881C103.462 35.926 103.37 35.5293 103.367 35.1271V7.61406C103.367 6.89798 103.652 6.21122 104.159 5.70487C104.666 5.19853 105.354 4.91406 106.071 4.91406C106.787 4.91406 107.475 5.19853 107.982 5.70487C108.489 6.21122 108.774 6.89798 108.774 7.61406V34.6141L118.937 55.1611C119.246 55.8025 119.288 56.5396 119.055 57.212C118.822 57.8845 118.333 58.4379 117.694 58.7521C117.291 58.9482 116.845 59.041 116.396 59.0221Z" fill="#A3F7BF"/>
<path d="M68.416 166.266C67.6991 166.266 67.0116 165.981 66.5046 165.475C65.9977 164.969 65.7129 164.282 65.7129 163.566V127.71C65.7129 126.994 65.9977 126.307 66.5046 125.801C67.0116 125.294 67.6991 125.01 68.416 125.01C69.1329 125.01 69.8205 125.294 70.3274 125.801C70.8343 126.307 71.1191 126.994 71.1191 127.71V163.566C71.1191 164.282 70.8343 164.969 70.3274 165.475C69.8205 165.981 69.1329 166.266 68.416 166.266Z" fill="#A3F7BF"/>
<path d="M56.2521 59.0221C55.8493 59.0198 55.4522 58.9275 55.0897 58.7521C54.4506 58.438 53.9614 57.8845 53.7286 57.2121C53.4957 56.5397 53.538 55.8026 53.8463 55.1611L63.8749 34.5062V7.50615C63.8749 6.79007 64.1597 6.10331 64.6666 5.59696C65.1735 5.09062 65.8611 4.80615 66.578 4.80615C67.2949 4.80615 67.9825 5.09062 68.4894 5.59696C68.9963 6.10331 69.2811 6.79007 69.2811 7.50615V35.1002C69.2787 35.5024 69.1864 35.8991 69.0108 36.2612L58.6849 57.5101C58.462 57.9646 58.1157 58.3473 57.6856 58.6146C57.2554 58.8819 56.7587 59.0232 56.2521 59.0221Z" fill="#A3F7BF"/>
<path d="M68.4161 130.41C67.9169 130.409 67.4279 130.269 67.0033 130.007C66.5786 129.745 66.235 129.37 66.0103 128.925L53.8463 105.111C53.6627 104.733 53.5701 104.317 53.5759 103.896V56.3221C53.5759 55.606 53.8607 54.9192 54.3677 54.4129C54.8746 53.9065 55.5622 53.6221 56.2791 53.6221H86.5C87.2091 53.6251 87.8887 53.9063 88.3922 54.4051C88.6476 54.6551 88.8508 54.9533 88.99 55.2824C89.1292 55.6115 89.2016 55.9648 89.2031 56.3221V83.7001C89.2197 84.3205 89.0218 84.9277 88.6427 85.4195C88.2636 85.9112 87.7265 86.2575 87.1217 86.4001L71.1192 90.1531V127.71C71.1358 128.331 70.9379 128.938 70.5588 129.429C70.1797 129.921 69.6426 130.268 69.0378 130.41C68.8315 130.438 68.6224 130.438 68.4161 130.41ZM58.9822 103.248L65.713 116.451V87.9661C65.6964 87.3456 65.8943 86.7384 66.2734 86.2467C66.6525 85.7549 67.1896 85.4086 67.7944 85.2661L83.7969 81.5941V58.9951H58.9822V103.248Z" fill="#A3F7BF"/>
<path d="M122.803 24.2998H100.989C99.4189 24.2066 97.9051 23.6836 96.613 22.7883C95.3209 21.893 94.3004 20.6598 93.6632 19.2238C93.0352 17.7841 92.046 16.5307 90.7911 15.5847C89.5362 14.6388 88.0582 14.0322 86.4999 13.8238C84.9408 14.0297 83.4616 14.6352 82.2063 15.5815C80.951 16.5278 79.9624 17.7826 79.3366 19.2238C78.6924 20.6601 77.6664 21.8927 76.3702 22.7875C75.074 23.6824 73.557 24.2054 71.9841 24.2998H50.1699C49.453 24.2998 48.7655 24.0153 48.2585 23.509C47.7516 23.0026 47.4668 22.3159 47.4668 21.5998C47.4668 20.8837 47.7516 20.1969 48.2585 19.6906C48.7655 19.1842 49.453 18.8998 50.1699 18.8998H71.9841C72.8491 18.8998 73.8223 18.0628 74.6873 16.6318C75.7477 14.331 77.3995 12.352 79.4744 10.896C81.5493 9.43999 83.9734 8.55903 86.4999 8.34277C89.0451 8.54218 91.4905 9.41858 93.582 10.8809C95.6735 12.3433 97.3349 14.3383 98.3937 16.6588C99.1506 18.0628 100.151 18.9268 101.097 18.9268H122.911C123.628 18.9268 124.315 19.2112 124.822 19.7176C125.329 20.2239 125.614 20.9107 125.614 21.6268C125.614 22.3429 125.329 23.0296 124.822 23.536C124.315 24.0423 123.628 24.3268 122.911 24.3268L122.803 24.2998Z" fill="#A3F7BF"/>
<path d="M86.4999 45.3328C83.9527 45.1281 81.5066 44.2465 79.4153 42.7796C77.3239 41.3126 75.6635 39.3136 74.6062 36.9898C73.8223 35.6128 72.8221 34.7218 71.903 34.7218H50.1699C49.453 34.7218 48.7655 34.4373 48.2585 33.931C47.7516 33.4246 47.4668 32.7379 47.4668 32.0218C47.4668 31.3057 47.7516 30.6189 48.2585 30.1126C48.7655 29.6062 49.453 29.3218 50.1699 29.3218H71.9841C73.551 29.4252 75.0609 29.9488 76.3548 30.8373C77.6488 31.7259 78.6789 32.9466 79.3366 34.3708C79.9423 35.8407 80.9218 37.1271 82.1782 38.1027C83.4346 39.0782 84.9244 39.7091 86.4999 39.9328C88.0565 39.7193 89.5322 39.1108 90.7863 38.1655C92.0404 37.2201 93.0309 35.9694 93.6632 34.5328C94.3078 33.1021 95.3302 31.8737 96.6208 30.9795C97.9113 30.0852 99.4213 29.5588 100.989 29.4568H122.803C123.52 29.4568 124.207 29.7412 124.714 30.2476C125.221 30.7539 125.506 31.4407 125.506 32.1568C125.506 32.8729 125.221 33.5596 124.714 34.066C124.207 34.5723 123.52 34.8568 122.803 34.8568H100.989C100.178 34.8568 99.1505 35.7478 98.2855 37.1518C97.2127 39.4286 95.5587 41.3832 93.4899 42.8192C91.4211 44.2553 89.0104 45.1222 86.4999 45.3328Z" fill="#A3F7BF"/>
<path d="M138.941 51.6242H125.587C124.153 51.6242 122.778 51.0553 121.764 50.0426C120.75 49.0299 120.181 47.6564 120.181 46.2242V8.1002C120.181 6.66803 120.75 5.29452 121.764 4.28182C122.778 3.26912 124.153 2.7002 125.587 2.7002H138.941C140.374 2.7002 141.75 3.26912 142.763 4.28182C143.777 5.29452 144.347 6.66803 144.347 8.1002V46.1702C144.354 46.8839 144.219 47.5919 143.951 48.2533C143.682 48.9147 143.285 49.5164 142.783 50.0235C142.28 50.5307 141.682 50.9333 141.022 51.208C140.363 51.4828 139.655 51.6242 138.941 51.6242ZM125.587 8.1002V46.1702H139.103V8.1002H125.587Z" fill="#A3F7BF"/>
<path d="M47.4128 51.6242H34.0593C32.6255 51.6242 31.2504 51.0553 30.2365 50.0426C29.2227 49.0299 28.6531 47.6564 28.6531 46.2242V8.1002C28.6531 6.66803 29.2227 5.29452 30.2365 4.28182C31.2504 3.26912 32.6255 2.7002 34.0593 2.7002H47.4128C48.8466 2.7002 50.2217 3.26912 51.2356 4.28182C52.2494 5.29452 52.819 6.66803 52.819 8.1002V46.1702C52.8262 46.8839 52.6916 47.5919 52.4231 48.2533C52.1546 48.9147 51.7575 49.5164 51.2548 50.0235C50.7521 50.5307 50.1537 50.9333 49.4942 51.208C48.8347 51.4828 48.1273 51.6242 47.4128 51.6242ZM34.0593 8.1002V46.1702H47.575V8.1002H34.0593Z" fill="#A3F7BF"/>
<path d="M138.941 170.1H125.587C124.153 170.1 122.778 169.531 121.764 168.518C120.75 167.506 120.181 166.132 120.181 164.7V126.63C120.181 125.198 120.75 123.824 121.764 122.812C122.778 121.799 124.153 121.23 125.587 121.23H138.941C140.374 121.23 141.75 121.799 142.763 122.812C143.777 123.824 144.347 125.198 144.347 126.63V164.7C144.347 166.132 143.777 167.506 142.763 168.518C141.75 169.531 140.374 170.1 138.941 170.1ZM125.587 126.576V164.646H139.103V126.576H125.587Z" fill="#A3F7BF"/>
<path d="M47.4128 170.1H34.0593C32.6255 170.1 31.2504 169.531 30.2365 168.518C29.2227 167.506 28.6531 166.132 28.6531 164.7V126.63C28.6531 125.198 29.2227 123.824 30.2365 122.812C31.2504 121.799 32.6255 121.23 34.0593 121.23H47.4128C48.8466 121.23 50.2217 121.799 51.2356 122.812C52.2494 123.824 52.819 125.198 52.819 126.63V164.7C52.819 166.132 52.2494 167.506 51.2356 168.518C50.2217 169.531 48.8466 170.1 47.4128 170.1ZM34.0593 126.576V164.646H47.575V126.576H34.0593Z" fill="#A3F7BF"/>
<path d="M122.803 143.451H100.989C99.5069 143.39 98.0648 142.954 96.7977 142.185C95.5306 141.415 94.48 140.336 93.7443 139.05C93.0202 137.729 91.9794 136.609 90.715 135.789C89.4506 134.969 88.0023 134.475 86.4999 134.352C84.9947 134.478 83.5438 134.973 82.2755 135.792C81.0072 136.612 79.9607 137.731 79.2285 139.05C78.4988 140.341 77.4495 141.424 76.1812 142.195C74.9128 142.965 73.4677 143.398 71.9841 143.451H50.1699C49.453 143.451 48.7655 143.167 48.2585 142.66C47.7516 142.154 47.4668 141.467 47.4668 140.751C47.4668 140.035 47.7516 139.348 48.2585 138.842C48.7655 138.336 49.453 138.051 50.1699 138.051H71.9841C72.5571 137.976 73.103 137.762 73.5742 137.428C74.0453 137.094 74.4275 136.65 74.6873 136.134C75.9009 134.048 77.6173 132.299 79.6804 131.045C81.7434 129.79 84.0877 129.071 86.4999 128.952C88.9093 129.068 91.2509 129.786 93.3101 131.041C95.3692 132.296 97.08 134.047 98.2855 136.134C98.5526 136.644 98.9368 137.084 99.4066 137.417C99.8764 137.75 100.419 137.967 100.989 138.051H122.803C123.52 138.051 124.207 138.336 124.714 138.842C125.221 139.348 125.506 140.035 125.506 140.751C125.506 141.467 125.221 142.154 124.714 142.66C124.207 143.167 123.52 143.451 122.803 143.451Z" fill="#A3F7BF"/>
<path d="M86.4999 161.541C84.0865 161.427 81.7403 160.71 79.6765 159.455C77.6126 158.2 75.8972 156.448 74.6873 154.359C74.4275 153.843 74.0453 153.399 73.5742 153.065C73.103 152.731 72.5571 152.517 71.9841 152.442H50.1699C49.453 152.442 48.7655 152.158 48.2585 151.651C47.7516 151.145 47.4668 150.458 47.4668 149.742C47.4668 149.026 47.7516 148.339 48.2585 147.833C48.7655 147.326 49.453 147.042 50.1699 147.042H71.9841C73.4718 147.093 74.9214 147.525 76.1944 148.295C77.4675 149.066 78.5214 150.15 79.2555 151.443C79.9777 152.765 81.0181 153.887 82.2828 154.707C83.5476 155.527 84.9969 156.02 86.4999 156.141C88.0023 156.018 89.4506 155.524 90.715 154.704C91.9794 153.884 93.0202 152.764 93.7443 151.443C94.476 150.153 95.5257 149.072 96.7937 148.302C98.0616 147.532 99.5057 147.098 100.989 147.042H122.803C123.52 147.042 124.207 147.326 124.714 147.833C125.221 148.339 125.506 149.026 125.506 149.742C125.506 150.458 125.221 151.145 124.714 151.651C124.207 152.158 123.52 152.442 122.803 152.442H100.989C100.418 152.512 99.8725 152.721 99.4012 153.05C98.9299 153.38 98.5468 153.82 98.2855 154.332C97.0814 156.422 95.3716 158.177 93.3126 159.437C91.2536 160.696 88.9113 161.42 86.4999 161.541Z" fill="#A3F7BF"/>
<path d="M86.5 134.352C85.7831 134.352 85.0955 134.068 84.5886 133.561C84.0817 133.055 83.7969 132.368 83.7969 131.652V42.5521C83.7969 41.836 84.0817 41.1492 84.5886 40.6429C85.0955 40.1365 85.7831 39.8521 86.5 39.8521C87.2169 39.8521 87.9045 40.1365 88.4114 40.6429C88.9183 41.1492 89.2031 41.836 89.2031 42.5521V131.652C89.2031 132.368 88.9183 133.055 88.4114 133.561C87.9045 134.068 87.2169 134.352 86.5 134.352Z" fill="#A3F7BF"/>
</svg>
