<svg width="200" height="181" viewBox="0 0 200 181" fill="none" xmlns="http://www.w3.org/2000/svg">
<path d="M83.7867 140.627L123.575 87.3652C126.312 83.7863 123.785 78.7339 119.154 78.7339H99.3651L106.312 44.4192C107.365 38.7352 100.207 35.3669 96.6284 40.2088L57.0507 93.2597C54.314 96.8386 56.8402 101.891 61.4716 101.891H81.05L74.1028 136.206C73.0502 141.89 80.2079 145.258 83.7867 140.627Z" fill="#A3F7BF"/>
<path d="M199.151 90.3128C197.888 88.2076 195.783 86.734 193.257 86.734H180.415C178.52 38.7356 138.732 0 90.3128 0C40.4197 0 0 40.6303 0 90.3128C0 139.995 40.4197 180.626 90.3128 180.626C111.786 180.626 132.838 172.836 149.048 158.942C152.627 155.995 153.048 150.521 149.89 147.153C146.943 143.574 141.469 143.153 138.101 146.311C124.838 157.679 107.786 163.995 90.3128 163.995C49.8931 163.995 16.8416 131.154 16.8416 90.5234C16.8416 49.8931 49.6826 17.0521 90.3128 17.0521C129.68 17.0521 161.679 47.9984 163.574 86.9445H150.942C148.416 86.9445 146.1 88.2076 145.048 90.5234C143.785 92.6285 143.995 95.3653 145.258 97.4705L166.521 130.101C167.784 131.996 169.889 133.259 172.205 133.259C174.521 133.259 176.626 132.206 177.889 130.101L198.941 97.26C200.204 95.1548 200.414 92.418 199.151 90.3128Z" fill="#A3F7BF"/>
</svg>
