<svg width="200" height="200" viewBox="0 0 200 200" fill="none" xmlns="http://www.w3.org/2000/svg">
<g clip-path="url(#clip0_122_410)">
<path d="M141.047 43.2488C142.248 41.373 141.701 38.8777 139.825 37.6769C127.942 30.0698 114.171 26.0483 100 26.0483C59.2238 26.0483 26.0483 59.223 26.0483 100C26.0483 140.778 59.2234 173.953 100 173.953C140.777 173.953 173.953 140.778 173.952 100.001C173.952 83.3301 168.537 67.5926 158.293 54.4894C156.922 52.7351 154.386 52.4246 152.631 53.7961C150.876 55.1679 150.565 57.7027 151.938 59.4582C161.062 71.1285 165.885 85.1477 165.885 100C165.885 136.329 136.329 165.885 100 165.885C63.6711 165.885 34.1159 136.329 34.1159 99.9997C34.1159 63.6707 63.6715 34.1155 100 34.1155C112.627 34.1155 124.893 37.6964 135.475 44.471C137.349 45.6718 139.845 45.1249 141.047 43.2488Z" fill="#A3F7BF"/>
<path d="M195.465 99.9997C195.465 95.3626 196.587 90.2263 197.671 85.2595C199.577 76.5337 201.547 67.5106 198.158 59.3379C194.625 50.8176 186.691 45.7856 179.017 40.9195C174.674 38.1652 170.572 35.5645 167.503 32.4953C164.435 29.4266 161.833 25.325 159.08 20.982C154.214 13.3089 149.181 5.37417 140.662 1.84096C132.488 -1.54733 123.466 0.422593 114.74 2.32807C109.773 3.41283 104.637 4.53432 100 4.53432C95.363 4.53432 90.2271 3.41283 85.2603 2.32807C76.5349 0.422593 67.5114 -1.54772 59.3383 1.84096C50.818 5.37377 45.7868 13.3086 40.9203 20.982C38.1668 25.3246 35.5653 29.4266 32.4969 32.4953C29.4281 35.5637 25.3258 38.1652 20.9836 40.9188C13.3097 45.7852 5.37496 50.8176 1.84175 59.3379C-1.54693 67.5102 0.422995 76.5329 2.32847 85.2587C3.41324 90.2255 4.53511 95.3618 4.53511 99.999C4.53511 104.636 3.41324 109.772 2.32847 114.739C0.422995 123.465 -1.54732 132.488 1.84175 140.661C5.37535 149.181 13.3101 154.214 20.9836 159.08L22.5348 160.066C24.4129 161.264 26.9066 160.713 28.1047 158.835C29.3035 156.957 28.7523 154.463 26.8742 153.264L25.3043 152.267C18.3851 147.879 11.85 143.735 9.29372 137.571C6.87496 131.737 8.49567 124.317 10.2109 116.461C11.3867 111.076 12.6027 105.507 12.6027 99.999C12.6027 94.4911 11.3871 88.9224 10.2109 83.5368C8.49567 75.6813 6.87535 68.2614 9.29372 62.4274C11.85 56.2633 18.3851 52.1188 25.3039 47.7313C29.8262 44.8641 34.5012 41.8985 38.2012 38.1992C41.9004 34.5 44.8661 29.8242 47.7336 25.3019C52.1208 18.3832 56.2653 11.8488 62.429 9.29292C68.263 6.87339 75.6833 8.4937 83.5396 10.2093C88.9243 11.3851 94.4931 12.6011 100.001 12.6011C105.508 12.6011 111.076 11.3855 116.462 10.2093C124.318 8.4937 131.738 6.873 137.572 9.29292C143.736 11.8488 147.88 18.3832 152.267 25.3019C155.135 29.8242 158.101 34.5 161.8 38.1992C165.499 41.8985 170.176 44.8641 174.697 47.7317C181.616 52.1192 188.151 56.2637 190.707 62.4274C193.126 68.2618 191.505 75.6817 189.791 83.5372C188.615 88.9224 187.399 94.4911 187.399 99.9994C187.399 105.508 188.614 111.076 189.791 116.461C191.506 124.317 193.126 131.737 190.707 137.571C188.151 143.735 181.616 147.88 174.697 152.267C170.175 155.134 165.5 158.1 161.8 161.799C158.101 165.498 155.135 170.174 152.267 174.696C147.88 181.615 143.736 188.15 137.572 190.705C131.738 193.125 124.318 191.505 116.462 189.789C111.077 188.613 105.508 187.397 100.001 187.397C94.4931 187.397 88.9251 188.613 83.5396 189.789C75.6833 191.505 68.2641 193.125 62.429 190.706C56.2653 188.15 52.1215 181.615 47.7336 174.697C46.5844 172.885 45.3961 171.012 44.1696 169.216C42.9121 167.377 40.4016 166.905 38.5633 168.162C36.7238 169.419 36.2516 171.929 37.5086 173.768C38.6578 175.45 39.7574 177.182 40.9207 179.017C45.7871 186.691 50.8188 194.625 59.3387 198.159C62.5696 199.498 65.9313 200 69.3563 200C74.597 200 79.9837 198.824 85.2607 197.671C90.2275 196.586 95.3634 195.464 100.001 195.464C104.638 195.464 109.774 196.586 114.74 197.671C123.466 199.576 132.489 201.546 140.662 198.158C149.183 194.625 154.214 186.69 159.08 179.017C161.834 174.674 164.435 170.572 167.504 167.503C170.573 164.435 174.675 161.833 179.017 159.08C186.691 154.214 194.625 149.181 198.159 140.661C201.547 132.488 199.577 123.466 197.672 114.74C196.587 109.773 195.465 104.637 195.465 99.9997Z" fill="#A3F7BF"/>
<path d="M64.8778 135.123C65.6657 135.91 66.6985 136.304 67.7305 136.304C68.7626 136.304 69.7954 135.91 70.5825 135.123L135.122 70.5826C136.698 69.008 136.698 66.4537 135.122 64.8783C133.547 63.3029 130.994 63.3029 129.418 64.8783L64.8778 129.418C63.3028 130.993 63.3028 133.547 64.8778 135.123Z" fill="#A3F7BF"/>
<path d="M78.4873 93.2773C86.6424 93.2773 93.2775 86.6425 93.2775 78.487C93.2775 70.3316 86.6424 63.6968 78.4873 63.6968C70.3322 63.6968 63.697 70.3316 63.697 78.487C63.697 86.6425 70.3322 93.2773 78.4873 93.2773ZM78.4873 71.764C82.1939 71.764 85.2103 74.7796 85.2103 78.487C85.2103 82.1945 82.1947 85.2101 78.4873 85.2101C74.7799 85.2101 71.7642 82.1945 71.7642 78.487C71.7646 74.7796 74.7802 71.764 78.4873 71.764Z" fill="#A3F7BF"/>
<path d="M121.514 136.304C129.669 136.304 136.304 129.669 136.304 121.514C136.304 113.358 129.669 106.724 121.514 106.724C113.359 106.724 106.724 113.358 106.724 121.514C106.724 129.669 113.359 136.304 121.514 136.304ZM121.514 114.791C125.221 114.791 128.237 117.806 128.237 121.514C128.237 125.221 125.221 128.237 121.514 128.237C117.806 128.237 114.791 125.221 114.791 121.514C114.791 117.806 117.806 114.791 121.514 114.791Z" fill="#A3F7BF"/>
</g>
<defs>
<clipPath id="clip0_122_410">
<rect width="200" height="200" fill="white"/>
</clipPath>
</defs>
</svg>
