<svg width="150" height="150" viewBox="0 0 150 150" fill="none" xmlns="http://www.w3.org/2000/svg">
<path d="M75 0.234375C33.7734 0.234375 0.234375 33.7734 0.234375 75C0.234375 116.227 33.7734 149.766 75 149.766C116.227 149.766 149.766 116.227 149.766 75C149.766 33.7734 116.227 0.234375 75 0.234375ZM75 143.516C37.2187 143.516 6.48438 112.781 6.48438 75C6.48438 37.2187 37.2187 6.48438 75 6.48438C112.781 6.48438 143.516 37.2187 143.516 75C143.516 112.781 112.781 143.516 75 143.516ZM128.176 44.4414C111.328 15.1172 73.7617 4.98828 44.4414 21.8242C15.4453 38.4844 5.20703 75.3906 21.2695 104.57L21.3086 104.637C21.4766 104.945 21.6484 105.254 21.8242 105.559C29.9289 119.662 43.304 129.968 59.0072 134.209C74.7105 138.451 91.4555 136.28 105.559 128.176C119.662 120.071 129.968 106.696 134.209 90.9928C138.451 75.2895 136.28 58.5445 128.176 44.4414ZM47.5547 27.2539C73.8906 12.1211 107.625 21.2344 122.758 47.5664C128.777 57.9859 131.187 70.1015 129.613 82.0312L95.8242 69.7344C95.1522 65.365 92.946 61.3777 89.601 58.4873C86.2561 55.5968 81.991 53.9922 77.5703 53.9609H72.3984C67.9777 53.9922 63.7127 55.5968 60.3677 58.4873C57.0228 61.3777 54.8165 65.365 54.1445 69.7344L20.3711 82.0312C18.9923 71.2358 20.8375 60.2736 25.6745 50.5244C30.5116 40.7753 38.1243 32.6747 47.5547 27.2422V27.2539ZM124.465 99.2187L96.0234 88.8672V76.4648L128.445 88.2578C128.355 88.625 128.262 88.9922 128.164 89.3555C127.243 92.7521 126.005 96.0544 124.465 99.2187ZM25.5234 99.2187C23.8088 95.7247 22.4706 92.0583 21.5313 88.2812L53.9531 76.4883V88.8867L25.5234 99.2187ZM28.6289 104.742L54.3828 95.3672C55.2651 99.3144 57.4182 102.863 60.5117 105.469C61.252 106.086 61.8485 106.857 62.2595 107.729C62.6704 108.601 62.8858 109.552 62.8906 110.516V128.707C48.7564 125.543 36.4431 116.926 28.6289 104.73V104.742ZM69.1563 129.742C69.1563 129.719 69.1563 129.691 69.1563 129.668V110.527C69.1515 108.652 68.7365 106.801 67.9402 105.103C67.1439 103.405 65.9857 101.902 64.5469 100.699C63.1845 99.5555 62.0889 98.1275 61.3372 96.5153C60.5854 94.9032 60.1957 93.146 60.1953 91.3672V72.0859C60.3041 68.9148 61.6349 65.9086 63.9093 63.696C66.1837 61.4835 69.2255 60.2362 72.3984 60.2148H77.5703C80.7446 60.2362 83.7875 61.4847 86.0621 63.6989C88.3367 65.913 89.6666 68.9212 89.7734 72.0937C89.7734 72.2031 89.7734 72.3125 89.7734 72.418V91.3672C89.7718 93.1433 89.3822 94.8977 88.6319 96.5075C87.8816 98.1174 86.7888 99.544 85.4297 100.688C83.9903 101.89 82.8316 103.393 82.0346 105.091C81.2377 106.788 80.8219 108.64 80.8164 110.516V129.465C80.8164 129.566 80.8164 129.668 80.8164 129.77C76.9348 130.178 73.0206 130.17 69.1406 129.746L69.1563 129.742ZM102.445 122.754C97.6508 125.516 92.4658 127.536 87.0664 128.746V110.516C87.0725 109.551 87.2892 108.6 87.7015 107.728C88.1137 106.856 88.7116 106.085 89.4531 105.469C92.5474 102.862 94.7006 99.3119 95.582 95.3633L121.363 104.738C116.604 112.184 110.113 118.366 102.445 122.758V122.754ZM87.0586 75C87.0578 72.6105 86.3483 70.2749 85.0198 68.2888C83.6913 66.3026 81.8035 64.7552 79.5953 63.8422C77.3871 62.9292 74.9578 62.6917 72.6146 63.1598C70.2714 63.6278 68.1196 64.7804 66.4317 66.4717C64.7437 68.163 63.5953 70.3169 63.1318 72.661C62.6682 75.0051 62.9105 77.434 63.8277 79.6405C64.745 81.8469 66.2961 83.7316 68.2848 85.0563C70.2736 86.3809 72.6105 87.0859 75 87.082C78.1997 87.0738 81.2656 85.7974 83.5259 83.5327C85.7862 81.268 87.0565 78.1997 87.0586 75ZM75 80.832C73.8466 80.8359 72.7181 80.4975 71.7572 79.8596C70.7963 79.2217 70.0462 78.3131 69.602 77.2487C69.1578 76.1843 69.0393 75.0121 69.2617 73.8803C69.484 72.7486 70.0372 71.7083 70.8511 70.8911C71.665 70.074 72.7031 69.5166 73.8339 69.2897C74.9647 69.0628 76.1374 69.1765 77.2036 69.6165C78.2697 70.0564 79.1814 70.8028 79.8231 71.7611C80.4648 72.7195 80.8078 73.8466 80.8086 75C80.8086 76.5427 80.1974 78.0226 79.1087 79.1156C78.0201 80.2086 76.5427 80.8258 75 80.832Z" fill="#A3F7BF"/>
</svg>
