<svg width="200" height="200" viewBox="0 0 200 200" fill="none" xmlns="http://www.w3.org/2000/svg">
<path d="M198.311 18.2359C197.533 16.6945 196.175 15.5254 194.536 14.9859L150.034 0.32889C146.619 -0.796891 142.94 1.06092 141.816 4.47459L136.903 19.3922C136.363 21.0312 136.497 22.818 137.274 24.359C138.052 25.9004 139.409 27.0695 141.049 27.609L145.186 28.9719L139.341 46.768H137.63C134.036 46.768 131.122 49.6816 131.122 53.2758C131.122 56.0172 132.82 58.3582 135.219 59.3168L131.084 71.9051H128.149C124.555 71.9051 121.641 74.8187 121.641 78.4133C121.641 81.5633 123.879 84.1898 126.852 84.791L124.061 93.2894L119.872 91.9097C116.461 90.7855 112.779 92.6418 111.655 96.0554L106.741 110.973C106.205 112.601 106.353 114.287 107.019 115.73H74.2477V88.2164C74.2477 75.1187 63.5918 64.4637 50.4942 64.4637H24.7453C11.6477 64.4637 0.991821 75.1195 0.991821 88.2164V176.106C0.991821 187.826 9.67034 198.79 23.7141 199.901C26.8985 199.877 34.4922 199.859 50.4942 199.859C63.5918 199.859 74.2477 189.204 74.2477 176.106V148.592H110.057C114.834 154.441 122.097 158.184 130.219 158.184C143.933 158.184 155.196 147.518 156.166 134.046C156.587 134.13 157.009 134.175 157.427 134.175C160.16 134.175 162.705 132.439 163.607 129.701L168.52 114.784C169.645 111.37 167.789 107.691 164.375 106.566L160.443 105.272L167.128 84.9211H168.871C172.465 84.9211 175.379 82.0074 175.379 78.4129C175.379 75.6605 173.668 73.3129 171.254 72.3613L175.385 59.7836H177.275C180.869 59.7836 183.783 56.8699 183.783 53.2754C183.783 50.4738 182.009 48.093 179.526 47.1758L181.57 40.9547L185.552 42.2664C187.191 42.8066 188.978 42.6726 190.519 41.8957C192.06 41.1183 193.23 39.7601 193.769 38.1211L198.682 23.2031C199.222 21.5633 199.088 19.7765 198.311 18.2359ZM19.5645 185.506C16.2543 183.675 14.0078 180.148 14.0078 176.106V88.216C14.0078 84.1734 16.2543 80.6469 19.5645 78.8152V185.506ZM41.9992 186.843H32.5801V77.4793H41.9992V186.843ZM61.2313 122.238V142.083V176.106C61.2313 180.412 58.6824 184.132 55.0156 185.841V78.4808C58.6828 80.1906 61.2313 83.9101 61.2313 88.216V122.238ZM104.42 135.576H74.2469V128.747H104.42C104.112 131.078 104.136 133.423 104.42 135.576ZM121.981 106.309L123.857 106.927C123.429 107.034 122.297 107.359 121.548 107.624L121.981 106.309ZM130.218 145.168C123.433 145.168 117.776 139.92 117.254 133.165C117.249 133.095 117.242 133.026 117.238 132.956C116.779 125.439 122.784 119.155 130.218 119.155C137.495 119.155 143.225 125.094 143.225 132.162C143.225 139.333 137.39 145.168 130.218 145.168ZM146.065 111.503C142.096 108.458 137.38 106.689 132.666 106.252C134.279 104.736 133.871 105.13 140.509 84.9211H153.427L146.047 107.389C145.591 108.78 145.628 110.215 146.065 111.503ZM153.279 119.449L152.85 119.308C152.113 118.008 151.274 116.786 150.344 115.65L154.121 116.894L153.279 119.449ZM157.702 71.9051H144.784L148.766 59.7836H161.684L157.702 71.9051ZM183.441 27.8676L179.454 26.5543C177.814 26.0133 176.026 26.148 174.484 26.9262C172.943 27.7047 171.774 29.0637 171.235 30.7047L165.959 46.7672H153.041L159.581 26.8547C160.702 23.4418 158.846 19.766 155.434 18.6426L151.302 17.2816L152.143 14.7265L184.283 25.3113L183.441 27.8676Z" fill="#A3F7BF"/>
</svg>
