<svg width="142" height="159" viewBox="0 0 142 159" fill="none" xmlns="http://www.w3.org/2000/svg">
<path d="M70.8181 0.728516C38.0251 0.728516 11.4389 7.17307 11.4389 15.1344C11.4389 21.8242 30.2395 27.4638 55.6919 29.09V45.7918H20.6677C13.3356 45.7918 8.08137 51.7201 7.4773 59.0272L0.0493053 148.884C-0.408323 154.419 3.41113 158.878 7.61237 158.878H134.024C138.225 158.878 142.042 154.42 141.587 148.884L134.204 59.0272C133.603 51.7198 128.301 45.7918 120.968 45.7918H85.9442V29.09C111.397 27.4638 130.197 21.8242 130.197 15.1344C130.197 7.17307 103.611 0.728516 70.8181 0.728516ZM28.2758 56.6412H55.6919V60.963H28.2758C26.77 60.963 25.8019 62.069 25.6197 63.8442L19.092 127.455C18.9639 128.703 20.2424 129.886 21.7481 129.886H118.177C119.683 129.886 120.961 128.703 120.833 127.455L114.306 63.8442C114.123 62.069 113.155 60.963 111.65 60.963H85.9442V56.6412H111.65C115.486 56.6412 118.264 59.8554 118.627 63.394L125.155 127.005C125.572 131.071 122.013 134.208 118.177 134.208H21.7481C17.9122 134.208 14.353 131.071 14.7703 127.005L21.2979 63.394C21.661 59.8554 24.4398 56.6412 28.2758 56.6412ZM54.6565 66.5453H55.6919V73.298C55.6919 74.6436 56.7833 75.7047 58.1229 75.729L59.5635 88.3341C59.8355 90.7447 61.8522 92.7009 64.6956 92.7009H76.9406C79.784 92.7009 81.8006 90.7447 82.0727 88.3341L83.5132 75.729C84.8528 75.7047 85.9442 74.6436 85.9442 73.298V66.5453H86.9796L94.2726 103.55H105.977L70.8181 124.709L35.6588 103.55H47.4086L54.6565 66.5453Z" fill="#A3F7BF"/>
</svg>
